<svg width="150" height="50" viewBox="0 0 150 50" fill="none" xmlns="http://www.w3.org/2000/svg">
<rect x="1.41421" y="25.0208" width="15" height="15" transform="rotate(-45 1.41421 25.0208)" stroke="#82DD54" stroke-width="2"/>
<path d="M39.9574 30.2842H29.9794L27.7384 36.5H24.4996L33.5944 12.6836H36.3424L45.4535 36.5H42.2311L39.9574 30.2842ZM30.9281 27.6997H39.025L34.9684 16.5603L30.9281 27.6997ZM50.309 33.9319H61.5957V36.5H47.1521V12.6836H50.309V33.9319ZM77.1326 25.4915H66.8111V33.9319H78.801V36.5H63.6704V12.6836H78.6375V15.2681H66.8111V22.9233H77.1326V25.4915ZM88.9727 21.811L94.6815 12.6836H98.3783L90.8538 24.4937L98.5582 36.5H94.8287L88.9727 27.209L83.0841 36.5H79.3709L87.0916 24.4937L79.5509 12.6836H83.2313L88.9727 21.811ZM104.755 12.6836L112.541 32.1162L120.327 12.6836H124.4V36.5H121.26V27.2253L121.554 17.2146L113.735 36.5H111.331L103.528 17.2637L103.839 27.2253V36.5H100.698V12.6836H104.755ZM130.793 33.9319H144.419V36.5H127.08V34.1445L140.134 15.2681H127.293V12.6836H143.896V14.99L130.793 33.9319Z" fill="white"/>
</svg>
